<?xml version="1.0" standalone="no"?><!DOCTYPE svg PUBLIC "-//W3C//DTD SVG 1.1//EN" "http://www.w3.org/Graphics/SVG/1.1/DTD/svg11.dtd"><svg t="1733329255429" class="icon" viewBox="0 0 1024 1024" version="1.1" xmlns="http://www.w3.org/2000/svg" p-id="7265" xmlns:xlink="http://www.w3.org/1999/xlink" width="200" height="200"><path d="M409.6 57.6C467.2 0 556.8 0 614.4 57.6l294.4 294.4c6.4 6.4 12.8 6.4 12.8 12.8L1004.8 448c6.4 12.8 12.8 25.6 12.8 38.4 0 12.8-6.4 25.6-12.8 38.4-12.8 12.8-25.6 19.2-38.4 19.2-12.8 0-25.6-6.4-38.4-12.8l6.4 6.4v416c0 25.6-25.6 51.2-51.2 51.2H147.2c-12.8 0-25.6-6.4-38.4-19.2-12.8-12.8-12.8-25.6-12.8-38.4V524.8c-6.4 6.4-19.2 12.8-32 12.8H57.6c-12.8 0-25.6-6.4-38.4-12.8C0 505.6 0 467.2 19.2 448L409.6 57.6zM512 128c-12.8 0-19.2 6.4-25.6 12.8L198.4 428.8v473.6h627.2V428.8L537.6 140.8C531.2 134.4 524.8 128 512 128z m0 275.2c25.6 0 51.2 19.2 51.2 51.2v96h96c25.6 0 44.8 25.6 44.8 51.2s-19.2 44.8-51.2 44.8H556.8v96c0 25.6-25.6 44.8-51.2 44.8s-44.8-19.2-44.8-51.2V640H364.8c-25.6 0-44.8-25.6-44.8-51.2s19.2-44.8 51.2-44.8h96V448c0-25.6 19.2-44.8 44.8-44.8z" fill="#2c2c2c" p-id="7266"></path></svg>