<?xml version="1.0" encoding="utf-8"?>
<!-- Generator: Adobe Illustrator 26.5.0, SVG Export Plug-In . SVG Version: 6.00 Build 0)  -->
<svg version="1.1" xmlns="http://www.w3.org/2000/svg" xmlns:xlink="http://www.w3.org/1999/xlink" x="0px" y="0px"
	 viewBox="0 0 300 300" style="enable-background:new 0 0 300 300;" xml:space="preserve">
<style type="text/css">
	.st0{display:none;}
	.st1{display:inline;}
</style>
<g id="图层_2" class="st0">
	<g class="st1">
		<path d="M188.51,145.19l-0.99-0.76c-15.8-12.16-20.25-15.61-17.79-45.46c6.04-2.85,9.87-6.68,9.87-11.47
			c0-0.42-0.09-0.82-0.22-1.2V74.42c0.14-0.62,0.22-1.26,0.22-1.92c0-5.65-5.44-10.42-15.38-13.62l6.09-29.67
			c0.03-0.13,0.03-0.25,0.04-0.38c0.49-1.04,0.76-2.14,0.76-3.33c0-9.99-18.42-14.54-35.54-14.54c-17.12,0-35.54,4.55-35.54,14.54
			c0,0.98,0.18,1.91,0.52,2.79c-0.02,0.3-0.01,0.61,0.05,0.93l6.07,29.58C94.23,62.64,91.53,68.3,91.53,72.5
			c0,0.21,0.02,0.42,0.04,0.63c-0.01,0.12-0.04,0.25-0.04,0.37v14c0,4.72,3.73,8.52,9.64,11.36c2.49,29.95-1.96,33.39-17.78,45.57
			l-0.99,0.76c-27.93,21.52-41.98,41.69-42.97,61.65c-1.23,24.94,18.2,45.41,38.2,64.24c17.39,16.37,34.75,17.91,57.18,17.96
			c0.01,0,0.02,0,0.02,0c0.21,0,0.41,0,0.61,0c0.2,0,0.41,0,0.61,0c0.01,0,0.02,0,0.02,0c22.43-0.05,39.79-1.59,57.18-17.96
			c20-18.83,39.43-39.3,38.2-64.24C230.49,186.88,216.44,166.72,188.51,145.19z M109.15,35.65c6.94,2.98,16.88,4.4,26.42,4.4
			c9.43,0,19.25-1.38,26.17-4.3l-5.01,24.45c-0.03,0.09-0.07,0.16-0.09,0.25c-0.07,0.25-0.1,0.5-0.11,0.75l-0.83,4.04
			c-2.36,1.19-8.7,3.72-19.85,3.72c-0.13,0-0.26,0.02-0.39,0.04c-0.13-0.01-0.26-0.04-0.39-0.04c-11.15,0-17.49-2.54-19.85-3.72
			L109.15,35.65z M135.57,18.04c18.48,0,28.46,5.29,28.46,7.46s-9.97,7.46-28.46,7.46c-18.48,0-28.46-5.29-28.46-7.46
			S117.09,18.04,135.57,18.04z M108.1,65.77l0.5,2.44c0.18,0.87,0.67,1.63,1.39,2.15c0.32,0.23,8,5.68,25.08,5.68
			c0.13,0,0.26-0.02,0.39-0.04c0.13,0.01,0.26,0.04,0.39,0.04c17.08,0,24.77-5.45,25.08-5.68c0.71-0.52,1.21-1.29,1.39-2.15
			l0.48-2.35c6.84,2.32,9.55,5,9.71,6.49c-0.1,0.3-0.17,0.62-0.19,0.95c-1.71,3.69-14.54,9.65-36.75,9.65
			c-23.91,0-36.96-6.91-36.96-10.46C98.61,70.73,101.17,68.03,108.1,65.77z M98.61,87.5v-5.01c8.28,4.98,22.67,7.55,36.96,7.55
			c14.16,0,28.42-2.53,36.73-7.42v4.88c0,0.24,0.03,0.48,0.07,0.7c-1.52,3.68-14.39,9.75-36.8,9.75
			C111.66,97.96,98.61,91.05,98.61,87.5z M188.42,265.92c-15.71,14.78-31.22,16.01-52.96,16.04c-21.74-0.02-37.25-1.25-52.96-16.04
			c-18.8-17.69-37.06-36.8-35.98-58.73c0.88-17.76,14.03-36.2,40.21-56.38l0.98-0.76c16.94-13.04,22.76-19.09,20.77-48.45
			c7.82,2.28,17.48,3.44,27.09,3.44c9.52,0,19.09-1.14,26.86-3.38c-1.98,29.31,3.84,35.35,20.77,48.38l0.98,0.76
			c26.18,20.18,39.34,38.62,40.21,56.38C225.48,229.12,207.22,248.23,188.42,265.92z"/>
		<path d="M136,193.03C136,193.03,136,193.03,136,193.03c-0.16,0-0.31,0.02-0.46,0.05c-0.15-0.03-0.31-0.05-0.47-0.05
			c-11.06,0-20.02,4.35-24.57,11.95c-3.81,6.35-4.04,14.28-0.6,20.71c3.91,7.32,9.02,10.51,11.71,11.75V247
			c0,1.36,1.11,2.47,2.47,2.47h11c0.13,0,0.25-0.02,0.38-0.04c0.12,0.02,0.25,0.04,0.37,0.04l11,0.04c0,0,0,0,0.01,0
			c0.65,0,1.28-0.26,1.74-0.72c0.46-0.46,0.73-1.09,0.73-1.74l0.03-9.56c2.69-1.24,7.82-4.41,11.75-11.72
			c3.45-6.42,3.25-14.36-0.54-20.71C156.01,197.45,147.07,193.07,136,193.03z M156.73,223.43c-4.4,8.18-10.27,9.92-10.49,9.98
			c-1.08,0.29-1.83,1.26-1.84,2.38l-0.03,8.77l-3.06-0.01l0.01-2.21c0-1.36-1.1-2.47-2.46-2.48c0,0,0,0-0.01,0
			c-1.36,0-2.46,1.1-2.47,2.46l-0.01,2.21l-0.53,0c0,0-0.01,0-0.01,0c-0.13,0-0.25,0.02-0.37,0.04c-0.13-0.02-0.25-0.04-0.38-0.04
			h-0.53v-2.21c0-1.36-1.11-2.47-2.47-2.47s-2.47,1.11-2.47,2.47v2.21h-3.06v-8.77c0-1.12-0.75-2.1-1.83-2.38
			c-0.06-0.02-6.09-1.83-10.46-10.01c-2.62-4.91-2.44-10.98,0.48-15.85c3.69-6.16,10.92-9.55,20.34-9.55c0.16,0,0.31-0.02,0.46-0.05
			c0.15,0.03,0.3,0.05,0.46,0.05c9.42,0.03,16.63,3.44,20.31,9.61C159.2,212.46,159.36,218.53,156.73,223.43z"/>
		<path d="M124.57,210.82c-2.88,0-4.97,3.2-4.97,7.62c0,4.42,2.09,7.62,4.97,7.62s4.97-3.2,4.97-7.62
			C129.54,214.03,127.45,210.82,124.57,210.82z"/>
		<path d="M135.48,226.33c-2.56-0.13-4.79,4.97-3.69,5.99c0.84,0.78,2.31,0.73,3.69-0.01c1.37,0.75,2.85,0.8,3.69,0.02
			C140.25,231.32,138.05,226.2,135.48,226.33z"/>
		<path d="M186.23,163.2c-0.38-0.32-0.78-0.65-1.2-0.99c-1.98-1.63-4.22-3.48-6.6-5.87c-0.05-0.05-0.1-0.08-0.15-0.12
			c-6.15-7.67-24.88-11.76-42.7-11.76c-17.62,0-36.13,3.99-42.49,11.49c-0.11,0.08-0.21,0.16-0.31,0.25
			c-2.38,2.38-4.63,4.22-6.61,5.84c-0.42,0.35-0.83,0.68-1.21,1c-19.04,15.8-28.48,30.5-28.85,44.93
			c-0.48,18.9,14.7,34.47,31.65,50.08c14.29,13.15,28.57,14.45,46.99,14.5c0,0,0,0,0.01,0c0.49,0,0.97,0,1.45,0
			c18.36,0,32.62-1.28,46.92-14.35c17.01-15.55,32.24-31.07,31.82-49.97C214.61,193.79,205.22,179.06,186.23,163.2z M135.57,149.55
			c24.6,0,39.7,7.11,39.7,12.2s-15.1,12.2-39.7,12.2c-24.6,0-39.7-7.11-39.7-12.2S110.97,149.55,135.57,149.55z M179.67,254.44
			c-13.28,12.14-26.34,13.04-44.66,13.01c-17.91-0.04-30.76-1.15-43.81-13.15c-16.67-15.34-30.44-29.41-30.01-46.19
			c0.33-12.88,9.16-26.33,27.01-41.14c0.37-0.31,0.77-0.63,1.18-0.97c0.58-0.47,1.21-1,1.87-1.54c3.37,9.51,24.41,14.6,44.32,14.6
			c19.84,0,40.81-5.06,44.29-14.51c0.67,0.57,1.33,1.11,1.92,1.6c0.41,0.34,0.8,0.66,1.17,0.97c17.79,14.86,26.58,28.34,26.87,41.22
			C210.21,225.13,196.4,239.15,179.67,254.44z"/>
		<path d="M146.45,210.86c0,0-0.01,0-0.01,0c-1.63,0-3.09,1.05-3.99,2.89c-0.64,1.3-0.99,2.97-1,4.72
			c-0.01,1.74,0.34,3.42,0.96,4.72c0.89,1.84,2.34,2.91,3.98,2.91c0,0,0.01,0,0.01,0c1.63,0,3.09-1.05,3.98-2.89
			c0.64-1.3,0.99-2.97,1-4.72C151.4,214.08,149.32,210.87,146.45,210.86z"/>
		<path d="M217.57,92.04c7.19,0,13.04-5.85,13.04-13.04s-5.85-13.04-13.04-13.04S204.53,71.81,204.53,79S210.38,92.04,217.57,92.04z
			 M217.57,73.04c3.28,0,5.96,2.67,5.96,5.96s-2.67,5.96-5.96,5.96s-5.96-2.67-5.96-5.96S214.29,73.04,217.57,73.04z"/>
		<path d="M244.07,95.96c-9.12,0-16.54,7.42-16.54,16.54s7.42,16.54,16.54,16.54s16.54-7.42,16.54-16.54S253.19,95.96,244.07,95.96z
			 M244.07,121.96c-5.21,0-9.46-4.24-9.46-9.46s4.24-9.46,9.46-9.46s9.46,4.24,9.46,9.46S249.29,121.96,244.07,121.96z"/>
		<path d="M202.07,132.04c6.92,0,12.54-5.63,12.54-12.54s-5.63-12.54-12.54-12.54s-12.54,5.63-12.54,12.54
			S195.15,132.04,202.07,132.04z M202.07,114.04c3.01,0,5.46,2.45,5.46,5.46s-2.45,5.46-5.46,5.46s-5.46-2.45-5.46-5.46
			S199.06,114.04,202.07,114.04z"/>
	</g>
</g>
<g id="图层_1">
	<g>
		<path d="M161.46,117.78c-0.12,0.06-6.77,3.67-19.74,3.67c-0.13,0-0.26,0.02-0.39,0.04c-0.13-0.02-0.26-0.04-0.39-0.04
			c-12.97,0-19.63-3.61-19.74-3.67c-1.22-0.69-2.77-0.27-3.47,0.96c-0.7,1.22-0.27,2.78,0.95,3.48c0.31,0.18,7.75,4.34,22.27,4.34
			c0.13,0,0.26-0.02,0.39-0.04c0.13,0.02,0.26,0.04,0.39,0.04c14.51,0,21.96-4.16,22.27-4.34c1.22-0.7,1.65-2.26,0.95-3.48
			C164.24,117.51,162.69,117.09,161.46,117.78z"/>
		<path d="M237.16,216.17l-15.65-48.12c-0.19-0.58-0.58-1.08-1.11-1.4l-0.51-0.31c0.51-20.67-2.34-38.29-18.9-44.66
			c-4.72-1.81-9.03-3.06-12.83-4.16c-0.28-0.08-0.55-0.16-0.82-0.24c-1.12-2.92-2.44-5.36-3.78-7.35
			c-4.38-6.48-9.67-9.53-12.26-10.73c8.47-2.95,14.18-7.37,14.18-13.21c0-0.42-0.08-0.82-0.22-1.2V72.92
			c0.14-0.62,0.22-1.26,0.22-1.92c0-5.65-5.44-10.42-15.38-13.62l6.09-29.67c0.02-0.13,0.03-0.25,0.04-0.38
			c0.49-1.03,0.75-2.14,0.75-3.33c0-9.99-18.42-14.54-35.54-14.54S105.9,14.01,105.9,24c0,0.98,0.18,1.91,0.52,2.79
			c-0.02,0.3-0.02,0.61,0.05,0.92l6.07,29.58C100.1,61.14,97.4,66.8,97.4,71c0,0.21,0.02,0.42,0.03,0.63
			c-0.01,0.12-0.03,0.24-0.03,0.37v14c0,4.55,3.46,8.24,9,11.04c-1.6,3-3.09,7.64-1.95,13.64c0.2,1.03,0.46,2.06,0.79,3.08
			c-2.72,1.43-6.27,2.46-10.75,3.76c-3.81,1.1-8.11,2.35-12.83,4.16c-19.93,7.67-20.01,31.6-18.27,57.55
			c2.31,34.26,13.49,77.96,25.44,99.48c5.47,9.85,23.99,11.82,52.1,11.82c0.13,0,0.26-0.02,0.39-0.04c0.13,0.02,0.25,0.04,0.39,0.04
			c28.11,0,46.63-1.97,52.09-11.82c6.68-12.02,13.11-30.95,17.88-51.3l23.86-8.04C236.88,218.93,237.6,217.5,237.16,216.17z
			 M198.45,128.31c10.92,4.2,14.3,15.66,14.36,33.78l-23.4-14.08c1.45-9.16,1.24-16.63,0.14-22.69
			C192.33,126.16,195.32,127.1,198.45,128.31z M184.69,145.17l-2.32-1.4c-0.67-0.4-1.45-0.45-2.14-0.21
			c-0.71,0.21-1.33,0.72-1.64,1.46l-2.08,5.01c-8.34-1.86-17.85-3.01-27.49-3.41c-21.54-11.38-31.91-21.32-36.54-29.22
			c3.82-3.22,6.35-8.03,6.89-16.04c6.76,1.45,14.43,2.18,22.07,2.18c7.56,0,15.15-0.72,21.85-2.13c1.06,15.63,9.71,19.04,20.79,22.3
			C185.44,129.3,185.91,136.33,184.69,145.17z M161.56,187.92l15.96,47.89c0.36,1.07,1.35,1.75,2.42,1.75
			c0.26,0,0.52-0.04,0.78-0.12l8-2.57c-3.37,13.35-7.15,24.32-10.6,30.3c-3.62,6.29-26.44,6.29-36.18,6.29
			c-0.17,0-0.34,0.02-0.5,0.05c-0.16-0.03-0.33-0.05-0.5-0.05c-9.74,0-32.56,0-36.18-6.29c-7.87-13.68-17.56-53.41-19.84-88.2
			c10.43,7.91,34,12.09,56.52,12.09C148.19,189.05,155.01,188.66,161.56,187.92z M162.99,182.63c-6.58,0.83-13.83,1.32-21.55,1.32
			c-32.59,0-56.95-8.55-56.95-16.2c0-7.65,24.36-16.2,56.95-16.2c2.1,0,4.16,0.04,6.19,0.11c7.04,3.67,14.92,7.34,23.65,10.99
			L162.99,182.63z M161.25,152.66c4.78,0.55,9.24,1.29,13.27,2.16l-1.29,3.11C168.97,156.15,164.99,154.39,161.25,152.66z
			 M180.89,115.26c-5.68-2.06-8.88-4.53-10.07-10.58C173.51,106.21,177.69,109.36,180.89,115.26z M141.44,16.54
			c18.48,0,28.46,5.3,28.46,7.46c0,2.16-9.98,7.46-28.46,7.46s-28.46-5.3-28.46-7.46C112.98,21.84,122.96,16.54,141.44,16.54z
			 M167.61,34.25L162.6,58.7c-0.03,0.08-0.07,0.16-0.1,0.25c-0.06,0.25-0.09,0.5-0.11,0.74l-0.82,4.04
			c-2.36,1.19-8.71,3.73-19.85,3.73c-0.14,0-0.26,0.02-0.39,0.04c-0.13-0.02-0.26-0.04-0.39-0.04c-11.15,0-17.49-2.54-19.85-3.73
			l-6.07-29.58c6.94,2.98,16.88,4.39,26.42,4.39C150.87,38.54,160.69,37.16,167.61,34.25z M113.97,64.27l0.5,2.44
			c0.18,0.87,0.67,1.64,1.39,2.16c0.31,0.23,8,5.67,25.08,5.67c0.13,0,0.26-0.02,0.39-0.04c0.13,0.02,0.25,0.04,0.39,0.04
			c17.08,0,24.76-5.44,25.08-5.67c0.72-0.52,1.21-1.29,1.39-2.16l0.48-2.34c6.84,2.31,9.55,4.99,9.71,6.49
			c-0.1,0.3-0.17,0.61-0.19,0.94c-1.7,3.69-14.53,9.66-36.75,9.66c-23.91,0-36.96-6.91-36.96-10.46
			C104.48,69.23,107.04,66.53,113.97,64.27z M104.48,86v-5.01c8.28,4.99,22.68,7.55,36.96,7.55c14.16,0,28.42-2.52,36.73-7.42V86
			c0,0.24,0.03,0.48,0.07,0.7c-1.52,3.69-14.38,9.76-36.8,9.76C117.53,96.46,104.48,89.55,104.48,86z M112.37,99.48
			c-0.14,5.05-1.04,8.37-2.8,10.74c-0.03-0.12-0.06-0.24-0.08-0.36c-0.98-4.97,0.37-8.66,1.62-10.82
			C111.53,99.19,111.94,99.34,112.37,99.48z M187.62,275.28c-4.54,8.18-33.53,8.18-45.9,8.18c-0.14,0-0.26,0.02-0.39,0.04
			c-0.13-0.02-0.26-0.04-0.39-0.04c-12.38,0-41.36,0-45.9-8.18c-11.53-20.74-22.32-63.14-24.56-96.52
			c-1.88-27.88-0.24-45.08,13.73-50.45c4.44-1.71,8.59-2.91,12.26-3.98c4.3-1.25,8.3-2.41,11.72-4.14
			c5.19,8.76,15.24,17.55,30.08,26.29c-29.11,0.5-58.87,7.92-58.87,21.27c0,0.06,0.01,0.11,0.01,0.17c0,0.05-0.01,0.1-0.01,0.15
			c1.03,37.97,11.91,83.92,20.95,99.64c4.24,7.36,18.68,8.84,40.6,8.84c0.17,0,0.34-0.02,0.5-0.05c0.16,0.03,0.33,0.05,0.5,0.05
			c21.93,0,36.37-1.48,40.6-8.84c3.95-6.86,8.24-19.49,11.92-34.7l9.36-3.01C199.33,248.06,193.57,264.56,187.62,275.28z
			 M206.54,223.77l-24.98,8.03l-14.9-44.7l15.54-37.47l1.57,0.94c-0.37,1.87-0.78,3.78-1.3,5.8c-0.35,1.37,0.48,2.75,1.84,3.1
			c0.21,0.05,0.42,0.08,0.63,0.08c1.14,0,2.18-0.77,2.47-1.92c0.37-1.46,0.7-2.88,1-4.26l28.54,17.17l14.57,44.81L206.54,223.77z"/>
		<path d="M207.48,170.37c-0.66-0.04-1.35,0.3-1.77,0.86c-0.03,0.04-2.58,3.46-5.34,5.11c-2.6,1.55-6.95,4.15-8.55,8.48v0
			c-0.39,1.05-0.62,2.08-0.74,3.08c-0.17-0.12-0.32-0.25-0.5-0.36c-3.27-2.04-7.39-1.54-9.85-1.25c-2.47,0.29-5.69-0.59-5.72-0.6
			c-0.67-0.19-1.39-0.04-1.92,0.4s-0.83,1.11-0.78,1.81c0.03,0.4,0.8,9.8,7.04,13.69c2.23,1.39,4.78,1.84,7.16,1.84
			c3.61,0,6.81-1.04,7.87-1.42c1.07,2.43,2.76,8.34,0.02,17.91c-0.32,1.13,0.33,2.31,1.46,2.63c0.2,0.06,0.39,0.08,0.58,0.08
			c0.92,0,1.78-0.61,2.04-1.54c2.76-9.67,1.46-16.28,0.15-19.81c2.44-0.81,11.3-4.19,14.02-11.53c3.09-8.35-3.19-18.01-3.46-18.42
			C208.82,170.74,208.18,170.39,207.48,170.37z M183.83,196.53c2.5,0.52,4.4,1.5,5.69,2.37c-2.41,0.43-5.56,0.55-7.93-0.92
			c-2.66-1.66-3.94-5.09-4.55-7.56c1.28,0.17,2.78,0.27,4.19,0.1c2.58-0.31,5.25-0.52,7.09,0.63c0,0,0,0,0,0
			c1.55,0.97,2.43,2.4,2.92,3.81c-1.63-1-3.81-2.02-6.55-2.59c-1.15-0.24-2.28,0.5-2.51,1.65S182.68,196.29,183.83,196.53z
			 M208.67,188.27c-1.44,3.87-5.51,6.41-8.47,7.8c0.52-1.97,1.67-5.01,4.27-8.04c0.76-0.89,0.66-2.23-0.24-3
			c-0.89-0.76-2.24-0.66-3,0.24c-2.71,3.17-4.13,6.35-4.87,8.75c-0.97-2.1-1.61-4.85-0.55-7.71v0c1-2.71,3.88-4.6,6.75-6.31
			c1.72-1.03,3.3-2.5,4.49-3.76C208.45,179.17,210.2,184.12,208.67,188.27z"/>
	</g>
	<g>
	</g>
	<g>
	</g>
	<g>
	</g>
	<g>
	</g>
	<g>
	</g>
	<g>
	</g>
	<g>
	</g>
	<g>
	</g>
	<g>
	</g>
	<g>
	</g>
	<g>
	</g>
	<g>
	</g>
	<g>
	</g>
	<g>
	</g>
	<g>
	</g>
</g>
</svg>
