<?xml version="1.0" standalone="no"?><!DOCTYPE svg PUBLIC "-//W3C//DTD SVG 1.1//EN" "http://www.w3.org/Graphics/SVG/1.1/DTD/svg11.dtd"><svg t="1733553372613" class="icon" viewBox="0 0 1024 1024" version="1.1" xmlns="http://www.w3.org/2000/svg" p-id="21098" xmlns:xlink="http://www.w3.org/1999/xlink" width="200" height="200"><path d="M719.346 520.173a23.745 23.745 0 0 1-15.46-5.708L550.345 383.973c-10.08-8.523-11.292-23.61-2.739-33.657 8.587-10.079 23.673-11.26 33.658-2.738L734.806 478.07c10.079 8.523 11.291 23.61 2.737 33.658a23.831 23.831 0 0 1-18.197 8.445zM991.062 195.435c-0.436 0-0.84 0-1.244-0.03-13.19-0.685-23.33-11.915-22.646-25.073l0.155-6.159c0-50.61-41.155-91.796-91.764-91.796-16.238 0-32.196 4.293-46.101 12.38-11.354 6.596-26.004 2.738-32.662-8.648-6.626-11.384-2.768-26.005 8.648-32.661 21.183-12.319 45.446-18.85 70.115-18.85 76.958 0 139.543 62.617 139.543 139.574 0 2.862-0.062 5.755-0.217 8.586-0.653 12.786-11.197 22.677-23.827 22.677z" fill="#2c2c2c" p-id="21099"></path><path d="M36.742 999.152c-5.505 0-11.042-1.866-15.521-5.724-10.048-8.586-11.198-23.642-2.614-33.658L795.713 51.941c8.554-10.079 23.734-11.137 33.658-2.614 10.047 8.555 11.198 23.642 2.613 33.658L54.877 990.816c-4.697 5.536-11.416 8.336-18.135 8.336z" fill="#2c2c2c" p-id="21100"></path><path d="M63.774 1000.023c-20.499 0-32.506-0.87-33.345-0.932-13.127-1.12-22.864-12.692-21.775-25.818 1.12-13.127 12.318-22.958 25.787-21.775 22.086 1.618 541.193 39.007 661.7-457.936a23.482 23.482 0 0 1 5.07-9.892L973.083 166.07c8.554-10.048 23.733-11.167 33.657-2.613 10.047 8.555 11.198 23.641 2.614 33.657l-268.17 313.306c-114.132 456.38-552.517 489.602-677.41 489.602z" fill="#2c2c2c" p-id="21101"></path></svg>