<?xml version="1.0" standalone="no"?><!DOCTYPE svg PUBLIC "-//W3C//DTD SVG 1.1//EN" "http://www.w3.org/Graphics/SVG/1.1/DTD/svg11.dtd"><svg t="1733553447896" class="icon" viewBox="0 0 1024 1024" version="1.1" xmlns="http://www.w3.org/2000/svg" p-id="24980" id="mx_n_1733553447896" xmlns:xlink="http://www.w3.org/1999/xlink" width="200" height="200"><path d="M761.70752 415.60064v-91.4432H387.41504V416.8192c-69.48352 48-114.06848 121.9584-114.06848 204.98944 0 144.70144 135.25504 262.00576 302.1056 262.00576s302.1056-117.30432 302.1056-262.00576c-0.00512-83.73248-45.35296-158.23872-115.85024-206.208z" fill="#BCE5E5" p-id="24981"></path><path d="M711.6032 331.15648H307.01056a16.04096 16.04096 0 0 1 0-32.08192h404.59264a16.04096 16.04096 0 0 1 0 32.08192z" fill="#2E0C08" p-id="24982"></path><path d="M307.01056 391.76192a16.04096 16.04096 0 0 1-16.04096-16.04096V318.67904a16.04096 16.04096 0 0 1 32.08192 0v57.04192a16.04096 16.04096 0 0 1-16.04096 16.04096zM711.6032 391.76192a16.04096 16.04096 0 0 1-16.04096-16.04096V318.67904a16.04096 16.04096 0 1 1 32.08192 0v57.04192a16.04096 16.04096 0 0 1-16.04096 16.04096zM511.98464 913.98656c-183.7824 0-333.29664-129.13152-333.29664-287.84128 0-86.46656 44.45184-167.56736 121.9584-222.52032a16.04608 16.04608 0 0 1 18.56 26.17344c-68.91008 48.86016-108.43648 120.42752-108.43648 196.352 0 141.02528 135.12704 255.75936 301.21472 255.75936s301.21472-114.73408 301.21472-255.75936c0-75.95008-39.4752-147.51744-108.30336-196.352a16.04096 16.04096 0 0 1 18.57024-26.16832c77.4144 54.93248 121.81504 136.03328 121.81504 222.5152 0 158.70976-149.51424 287.84128-333.29664 287.84128zM397.91104 283.0336c-26.53184 0-48.12288-21.59104-48.12288-48.12288 0-26.53184 21.59104-48.12288 48.12288-48.12288a47.7184 47.7184 0 0 1 18.74944 3.79904 10.69056 10.69056 0 1 1-8.35584 19.6864 26.76736 26.76736 0 0 0-37.13024 24.63744 26.7776 26.7776 0 0 0 26.73664 26.74176 26.77248 26.77248 0 0 0 26.73664-26.74176 10.69056 10.69056 0 0 1 21.38624 0c0 26.53184-21.59104 48.12288-48.12288 48.12288zM516.06528 176.1024l-0.70144-0.01024c-20.45952 0-37.248-16.78848-37.248-37.4272s16.78848-37.43232 37.4272-37.43232c20.6336 0 37.43232 16.78848 37.43232 37.43232 0 5.06368-0.98816 9.96864-2.95424 14.592-2.99008 8.17152-13.7728 22.84544-33.95584 22.84544z m-0.52224-53.4784a16.06144 16.06144 0 0 0-16.04096 16.04096 16.05632 16.05632 0 0 0 16.04096 16.04096l0.52224 0.00512c10.0352 0 13.73696-8.4992 14.1312-9.46176a16.5888 16.5888 0 0 0 1.38752-6.58432 16.06144 16.06144 0 0 0-16.04096-16.04096z" fill="#2E0C08" p-id="24983"></path><path d="M583.70048 450.57536a16.04096 16.04096 0 0 1-16.04096-16.04096V320.4608a16.04096 16.04096 0 1 1 32.08192 0v114.0736a16.04096 16.04096 0 0 1-16.04096 16.04096zM651.00288 416.71168a16.04608 16.04608 0 0 1-16.04608-16.04096v-85.5552a16.04096 16.04096 0 1 1 32.08704 0v85.55008a16.04096 16.04096 0 0 1-16.04096 16.04608zM818.56 572.01664h-98.04288a16.04096 16.04096 0 1 1 0-32.08704h98.04288a16.04096 16.04096 0 1 1 0 32.08704zM829.24032 635.93984h-160.4096a16.04096 16.04096 0 1 1 0-32.08704h160.4096a16.04096 16.04096 0 1 1 0 32.08704zM819.56864 709.0176H734.7712a16.04096 16.04096 0 1 1 0-32.08192h84.79744a16.04096 16.04096 0 1 1 0 32.08192z" fill="#2E0C08" p-id="24984"></path></svg>