<?xml version="1.0" standalone="no"?><!DOCTYPE svg PUBLIC "-//W3C//DTD SVG 1.1//EN" "http://www.w3.org/Graphics/SVG/1.1/DTD/svg11.dtd"><svg t="1733145960312" class="icon" viewBox="0 0 1024 1024" version="1.1" xmlns="http://www.w3.org/2000/svg" p-id="10284" xmlns:xlink="http://www.w3.org/1999/xlink" width="200" height="200"><path d="M853.504 565.248l66.304-15.36-61.44-28.672 5.376-66.304-47.104 48.384-62.976-25.6 32.512 58.368-44.288 50.432 67.072-12.032 35.584 56.832 8.96-66.048zM776.448 237.824l128.256-69.12-143.616-26.368L734.72 0l-69.632 127.232-144.64-18.944 100.608 104.96-62.976 130.816 131.584-62.464 105.984 99.84-19.2-143.616z m-262.912 188.416l21.504 38.912-29.44 33.792 44.544-8.192 23.552 37.888 5.888-44.032 44.032-10.24-40.96-18.944 3.584-44.032-31.232 32-41.472-17.152zM156.928 115.968c-209.152 207.616-209.152 544.512 0 752.128 209.152 207.616 548.608 207.616 757.76 0 47.36-46.848 83.2-100.608 109.056-157.696C826.88 798.72 587.008 762.88 424.96 602.112 262.912 441.344 227.072 203.52 315.648 7.68c-57.344 25.6-111.36 61.44-158.72 108.288z m0 0" p-id="10285" fill="#2c2c2c"></path></svg>