<?xml version="1.0" standalone="no"?><!DOCTYPE svg PUBLIC "-//W3C//DTD SVG 1.1//EN" "http://www.w3.org/Graphics/SVG/1.1/DTD/svg11.dtd"><svg t="1734765231611" class="icon" viewBox="0 0 1024 1024" version="1.1" xmlns="http://www.w3.org/2000/svg" p-id="16400" xmlns:xlink="http://www.w3.org/1999/xlink" width="200" height="200"><path d="M160.38115 669.241717a360 360 0 1 0 703.222924-154.523522 360 360 0 1 0-703.222924 154.523522Z" fill="#E4CAFF" p-id="16401"></path><path d="M208 520m-24 0a24 24 0 1 0 48 0 24 24 0 1 0-48 0Z" fill="#FFFFFF" p-id="16402"></path><path d="M72 520m-24 0a24 24 0 1 0 48 0 24 24 0 1 0-48 0Z" fill="#D67DF4" p-id="16403"></path><path d="M232 120m-24 0a24 24 0 1 0 48 0 24 24 0 1 0-48 0Z" fill="#C08CE5" p-id="16404"></path><path d="M792 40m-24 0a24 24 0 1 0 48 0 24 24 0 1 0-48 0Z" fill="#80489B" p-id="16405"></path><path d="M952 280m-24 0a24 24 0 1 0 48 0 24 24 0 1 0-48 0Z" fill="#C08CE5" p-id="16406"></path><path d="M512 208c-13.6 0-24 10.4-24 24s10.4 24 24 24c185.6 0 336 150.4 336 336s-150.4 336-336 336c-13.6 0-24 10.4-24 24s10.4 24 24 24c212 0 384-172 384-384S724 208 512 208z" fill="#444B54" p-id="16407"></path><path d="M512 928c-13.6 0-24-10.4-24-24s10.4-24 24-24c116 0 220-68.8 265.6-176 4.8-12 19.2-17.6 31.2-12.8 12 4.8 17.6 19.2 12.8 31.2C768.8 847.2 647.2 928 512 928z" fill="#80489B" p-id="16408"></path><path d="M713.6 317.6c-4.8 0-9.6-1.6-13.6-4-56-37.6-120.8-57.6-188-57.6-13.6 0-24-10.4-24-24s10.4-24 24-24c76.8 0 151.2 22.4 214.4 65.6 11.2 7.2 13.6 22.4 6.4 33.6-4 6.4-12 10.4-19.2 10.4z" fill="#9A61BC" p-id="16409"></path><path d="M152 616c-13.6 0-24-10.4-24-24 0-212 172-384 384-384 13.6 0 24 10.4 24 24s-10.4 24-24 24c-185.6 0-336 150.4-336 336 0 13.6-10.4 24-24 24z" fill="#C08CE5" p-id="16410"></path><path d="M512 976c-212 0-384-172-384-384 0-13.6 10.4-24 24-24s24 10.4 24 24c0 185.6 150.4 336 336 336 13.6 0 24 10.4 24 24s-10.4 24-24 24z" fill="#80489B" p-id="16411"></path><path d="M872 968h-64.8l-33.6-73.6c-4-8.8-12.8-14.4-21.6-14.4H272c-9.6 0-17.6 5.6-21.6 14.4l-40 88c-3.2 7.2-2.4 16 1.6 23.2 4 6.4 12 10.4 20 10.4h640c13.6 0 24-10.4 24-24s-10.4-24-24-24z" fill="#444B54" p-id="16412"></path><path d="M258.4 434.4c-4.8 0-9.6-1.6-13.6-4.8-10.4-8-13.6-22.4-5.6-33.6 43.2-60 105.6-104.8 175.2-125.6 12.8-4 26.4 3.2 29.6 16s-3.2 26.4-16 29.6C368 334.4 315.2 372.8 278.4 424c-4.8 6.4-12.8 10.4-20 10.4zM380.8 444c-7.2 0-14.4-3.2-19.2-9.6-8-10.4-6.4-25.6 4.8-33.6 26.4-20 56-34.4 88-42.4 12.8-3.2 25.6 4.8 28.8 17.6 3.2 12.8-4.8 25.6-17.6 28.8-25.6 6.4-48.8 17.6-70.4 33.6-4 4-8.8 5.6-14.4 5.6zM512 880c-132 0-252-92-281.6-226.4-3.2-12.8 5.6-25.6 18.4-28.8 12.8-3.2 25.6 5.6 28.8 18.4 13.6 62.4 51.2 116 104.8 150.4 54.4 34.4 118.4 46.4 180.8 32 12.8-3.2 25.6 5.6 28.8 18.4 3.2 12.8-5.6 25.6-18.4 28.8-20.8 4.8-41.6 7.2-61.6 7.2z" fill="#FFFFFF" p-id="16413"></path><path d="M992 992m-24 0a24 24 0 1 0 48 0 24 24 0 1 0-48 0Z" fill="#444B54" p-id="16414"></path></svg>