<?xml version="1.0" standalone="no"?><!DOCTYPE svg PUBLIC "-//W3C//DTD SVG 1.1//EN" "http://www.w3.org/Graphics/SVG/1.1/DTD/svg11.dtd"><svg t="1733414214833" class="icon" viewBox="0 0 1024 1024" version="1.1" xmlns="http://www.w3.org/2000/svg" p-id="10599" xmlns:xlink="http://www.w3.org/1999/xlink" width="200" height="200"><path d="M554.666667 682.666667h-341.333334A156.558222 156.558222 0 0 1 56.888889 526.222222v-227.555555A156.558222 156.558222 0 0 1 213.333333 142.222222h341.333334c56.832 0 109.340444 30.890667 136.874666 80.668445 11.377778 20.593778 3.925333 46.592-16.668444 58.026666a42.780444 42.780444 0 0 1-58.026667-16.668444A71.224889 71.224889 0 0 0 554.609778 227.555556H213.333333c-39.196444 0-71.111111 31.914667-71.111111 71.111111v227.555555c0 39.196444 31.914667 71.111111 71.111111 71.111111h341.333334c39.196444 0 71.111111-31.914667 71.111111-71.111111a42.666667 42.666667 0 0 1 85.333333 0A156.558222 156.558222 0 0 1 554.666667 682.666667z" p-id="10600" fill="#1296db"></path><path d="M810.723556 881.777778h-341.333334a156.501333 156.501333 0 0 1-136.874666-80.668445 42.780444 42.780444 0 0 1 16.668444-58.026666 42.780444 42.780444 0 0 1 58.026667 16.668444c12.515556 22.641778 36.408889 36.693333 62.236444 36.693333h341.333333c39.196444 0 71.111111-31.914667 71.111112-71.111111v-227.555555c0-39.196444-31.914667-71.111111-71.111112-71.111111h-341.333333c-39.253333 0-71.111111 31.914667-71.111111 71.111111a42.666667 42.666667 0 0 1-85.333333 0A156.558222 156.558222 0 0 1 469.447111 341.333333h341.333333a156.558222 156.558222 0 0 1 156.444445 156.444445v227.555555a156.615111 156.615111 0 0 1-156.501333 156.444445z" p-id="10601" fill="#1296db"></path></svg>