<?xml version="1.0" standalone="no"?><!DOCTYPE svg PUBLIC "-//W3C//DTD SVG 1.1//EN" "http://www.w3.org/Graphics/SVG/1.1/DTD/svg11.dtd"><svg t="1733902232611" class="icon" viewBox="0 0 1024 1024" version="1.1" xmlns="http://www.w3.org/2000/svg" p-id="6822" xmlns:xlink="http://www.w3.org/1999/xlink" width="200" height="200"><path d="M673.28 410.88l-11.9168-11.9168a25.344 25.344 0 0 0-35.7376 0L514.432 510.208 403.2 399.0144a25.344 25.344 0 0 0-35.7376 0L355.584 410.88a25.344 25.344 0 0 0 0 35.7376l111.1936 111.1936-111.1936 111.2576a25.344 25.344 0 0 0 0 35.7376l11.9168 11.9168a25.344 25.344 0 0 0 35.7376 0l111.1936-111.1936 111.1936 111.1936a25.344 25.344 0 0 0 35.7376 0l11.9168-11.9168a25.344 25.344 0 0 0 0-35.7376l-111.1936-111.1936L673.28 446.72a25.344 25.344 0 0 0 0-35.84z" p-id="6823"></path><path d="M1011.072 414.5408l-433.408-334.08c-37.0304-30.2336-95.1296-30.1696-132.0832 0l-430.08 334.08a35.84 35.84 0 0 0-5.6448 49.2416 33.28 33.28 0 0 0 47.744 5.76l20.6208-14.272v397.3248c0 60.16 53.6832 113.5616 107.6992 113.5616h678.6304c53.376 0 83.9552-31.8848 83.9552-94.6432V455.2704l20.6208 14.3232a33.0624 33.0624 0 0 0 47.6288-5.9392 35.7504 35.7504 0 0 0-5.6832-49.1136zM513.28 837.7216c-158.1952 0-286.4512-128.2432-286.4512-286.4512S355.0848 264.8192 513.28 264.8192s286.4512 128.256 286.4512 286.4512S671.488 837.7216 513.28 837.7216z" p-id="6824"></path></svg>