<?xml version="1.0" standalone="no"?><!DOCTYPE svg PUBLIC "-//W3C//DTD SVG 1.1//EN" "http://www.w3.org/Graphics/SVG/1.1/DTD/svg11.dtd"><svg t="1735119447602" class="icon" viewBox="0 0 1186 1024" version="1.1" xmlns="http://www.w3.org/2000/svg" p-id="1692" xmlns:xlink="http://www.w3.org/1999/xlink" width="74.125" height="64"><path d="M418.14642 488.505857c0 82.990809 68.696607 150.330372 153.466652 150.330372 84.679576 0 153.436496-67.27925 153.436496-150.330372 0-83.020966-68.666451-150.300215-153.436496-150.300216s-153.466653 67.27925-153.466652 150.300216z m153.406339-98.642056c55.578511 0 100.632387 44.14918 100.632388 98.611899 0 54.432562-45.053877 98.551586-100.632388 98.551586-55.578511 0-100.602231-44.119024-100.602231-98.551586 0-54.462719 45.02372-98.611899 100.602231-98.611899z m192.308282 300.359179c-48.491723-25.120401-61.609819-27.985273-103.014755-34.5594 0 0-57.508529 19.481127-89.293527 18.908154-31.754841 0.603131-83.352688-18.908153-83.352687-18.908154-41.404935 6.574127-60.463871 9.438998-108.925437 34.5594-33.232512 17.249543-69.661617 71.078974-70.59647 103.135381-0.965009 32.056406-3.196594 125.451223-3.196594 125.451223 7.689919 14.143419 91.464798 43.063545 91.464798 43.063545l1.266575-107.869958s15.198898 111.398274 18.305022 112.875944c42.008066 19.812849 155.034793 19.812849 155.034793 19.812849s112.966414 0 155.034793-19.812849c3.136281-1.477671 18.305022-112.875944 18.305022-112.875944l1.266575 107.869958s83.774879-28.920126 91.494955-43.063545c0 0-2.261741-93.394817-3.196594-125.451223-0.965009-32.056406-37.454428-85.825524-70.596469-103.135381z m17.370169-314.472441c0 67.490346 55.880076 122.25463 124.817936 122.254629 68.907703 0 124.817936-54.734127 124.817936-122.254629 0-67.490346-55.880076-122.25463-124.817936-122.25463-68.907703 0-124.817936 54.703971-124.817936 122.25463z m124.817936-85.403333c48.160001 0 87.182569 38.238498 87.182569 85.403333 0 47.134678-39.022568 85.403333-87.182569 85.403332-48.129844 0-87.212725-38.268654-87.212726-85.403332 0-47.194991 39.082881-85.403333 87.212726-85.403333z m213.809897 333.380594c-0.78407-26.055254-30.458109-69.872713-57.448216-83.895505-39.44476-20.446137-50.120176-22.768191-83.77488-28.105899 0 0-46.7728 15.862342-72.586801 15.289368-25.814002 0.512661-67.791911-15.289368-67.791911-15.289368-25.452123 4.040977-40.560552 6.332874-63.419212 16.043281a150.511311 150.511311 0 0 1-82.387679 95.264523c32.388128 5.428178 47.587026 10.072286 91.01245 32.599224 33.202355 17.18923 69.63146 71.018661 70.59647 103.105224l0.542818 20.054102c27.744021 2.110958 51.447064 2.110958 51.447064 2.110958s91.88699 0 126.054354-16.133751c2.563306-1.206262 14.897333-91.856833 14.897333-91.856833l1.055479 87.725386s68.093476-23.491948 74.396194-35.011747c0 0.120626-1.809393-75.783395-2.593463-101.898963zM240.675158 497.944855c68.93786 0 124.848092-54.703971 124.848092-122.254629 0-67.490346-55.880076-122.25463-124.848092-122.25463-68.907703 0-124.817936 54.703971-124.817936 122.25463 0.09047 67.550659 55.910233 122.25463 124.817936 122.254629z m-1.357044-207.597649c48.129844 0 87.212725 38.238498 87.212725 85.403333 0 47.134678-39.082881 85.403333-87.212725 85.403332-48.160001 0-87.212725-38.268654-87.212726-85.403332-0.030157-47.194991 38.992411-85.403333 87.212726-85.403333z m123.973552 365.316374c43.36511-22.496782 58.594165-27.14089 91.01245-32.569067a150.903346 150.903346 0 0 1-82.417835-95.234366c-22.85866-9.710407-37.936932-12.062618-63.389055-16.073438 0 0-41.977909 15.832186-67.822068 15.319524-25.814002 0.482505-72.556645-15.319524-72.556645-15.319524-33.654703 5.337708-44.360276 7.599449-83.774879 28.075742-26.990107 14.05295-56.694303 57.810095-57.448217 83.925662-0.78407 26.055254-2.593463 101.959275-2.593462 101.959276 6.272561 11.489643 74.396194 35.041904 74.396194 35.041904l1.025322-87.755543s12.334027 90.650571 14.897333 91.826676c34.197521 16.133751 126.054354 16.133751 126.054354 16.133752s23.703044 0 51.447064-2.110959l0.572975-20.054101c0.965009-32.116719 37.454428-85.915994 70.596469-103.165538z m47.948905-471.28647c44.119024 0 79.914842-35.072061 79.914842-78.316545 0-43.274641-35.825974-78.286388-79.914842-78.286388-44.179337 0-79.944998 35.072061-79.944998 78.286388-0.030157 43.244484 35.765661 78.316545 79.944998 78.316545z m0-132.357072c30.458109 0 55.126163 24.155392 55.126163 54.010371 0 29.824822-24.668053 54.01037-55.126163 54.01037-30.488266 0-55.186476-24.185548-55.186475-54.01037 0-29.794666 24.69821-54.01037 55.186475-54.010371z m-37.152862 286.064977c0 8.835867-1.387201 17.309856-3.377533 25.542593 20.777859 1.960175 40.530395 2.020488 40.530395 2.020488s15.229055 0 33.142042-1.417357a137.272588 137.272588 0 0 1 53.950057-45.687164c1.779236-11.791209 3.166437-22.014277 3.166438-22.014277l0.211095 20.295354a138.931198 138.931198 0 0 1 47.496557-11.429331c-0.422192-14.625924-0.844383-31.784997-1.055479-40.470082-0.512661-16.736882-19.481127-44.782468-36.790984-53.738961-25.241027-13.118097-32.116719-14.565611-53.678648-18.033613 0 0-29.945448 10.162755-46.441078 9.831033-16.616256 0.331722-43.485737-9.831033-43.485736-9.831033-21.561929 3.468003-31.483432 4.915517-56.72446 18.033613-7.720075 3.980664-15.741716 11.911835-22.376155 20.808015 49.004384 11.640426 85.433489 54.553188 85.433489 106.090722z m358.681935-153.707905c44.14918 0 79.914842-35.072061 79.914841-78.316545 0-43.274641-35.795818-78.286388-79.914841-78.286388-44.179337 0-79.914842 35.072061-79.914842 78.286388-0.030157 43.244484 35.735505 78.316545 79.914842 78.316545z m0-132.357072c30.488266 0 55.156319 24.155392 55.156319 54.010371 0 29.824822-24.668053 54.01037-55.156319 54.01037-30.488266 0-55.156319-24.185548-55.156319-54.01037 0-29.794666 24.668053-54.01037 55.156319-54.010371zM642.450794 296.529298s1.357044 10.223068 3.136281 22.07459a136.729771 136.729771 0 0 1 54.01037 45.717321c17.852674 1.326888 33.172198 1.357044 33.172199 1.357044s19.662067-0.030157 40.500238-2.020488a105.547904 105.547904 0 0 1-3.377533-25.542593c0-51.477221 36.459262-94.389983 85.373177-106.000253-6.604283-8.956494-14.595767-16.827352-22.376156-20.838171-25.210871-13.118097-35.192687-14.565611-56.694303-18.003457 0 0-26.899637 10.132599-43.425423 9.800877-16.586099 0.331722-46.471234-9.800877-46.471235-9.800877-21.622242 3.437846-28.437621 4.88536-53.648491 18.003457-17.340013 8.956494-36.308479 37.00208-36.821141 53.738961-0.271409 8.685085-0.693601 25.844158-1.055479 40.470082 16.887665 1.115792 32.840476 4.855204 47.526714 11.42933l0.150782-20.385823z" p-id="1693" fill="#000000"></path></svg>