<?xml version="1.0" standalone="no"?><!DOCTYPE svg PUBLIC "-//W3C//DTD SVG 1.1//EN" "http://www.w3.org/Graphics/SVG/1.1/DTD/svg11.dtd"><svg t="1734849015786" class="icon" viewBox="0 0 1024 1024" version="1.1" xmlns="http://www.w3.org/2000/svg" p-id="2460" xmlns:xlink="http://www.w3.org/1999/xlink" width="200" height="200"><path d="M882.876768 281.082828h-46.416162v278.109091c0 76.8-62.319192 139.119192-139.119192 139.119192H422.593939c10.343434 39.951515 46.286869 69.559596 89.470707 69.559596h115.846465l162.262626 162.262626V767.870707h92.703031c51.2 0 92.70303-41.50303 92.70303-92.70303V373.785859c0-51.2-41.50303-92.70303-92.70303-92.703031z" p-id="2461"></path><path d="M790.173737 559.191919V188.379798c0-51.2-41.50303-92.70303-92.70303-92.70303H141.123232C89.923232 95.676768 48.420202 137.179798 48.420202 188.379798v370.812121c0 51.2 41.50303 92.70303 92.70303 92.70303h92.703031v162.262627l162.262626-162.262627H697.470707c51.2 0.129293 92.70303-41.373737 92.70303-92.70303zM210.682828 373.785859c0-25.6 20.816162-46.416162 46.416162-46.416162 25.6 0 46.416162 20.816162 46.416162 46.416162 0 25.6-20.816162 46.416162-46.416162 46.416161-25.729293 0-46.416162-20.816162-46.416162-46.416161zM419.232323 420.20202c-25.6 0-46.416162-20.816162-46.416161-46.416161 0-25.6 20.816162-46.416162 46.416161-46.416162 25.6 0 46.416162 20.816162 46.416162 46.416162 0 25.6-20.816162 46.416162-46.416162 46.416161z m162.262626 0c-25.6 0-46.416162-20.816162-46.416161-46.416161 0-25.6 20.816162-46.416162 46.416161-46.416162s46.416162 20.816162 46.416162 46.416162c0 25.6-20.816162 46.416162-46.416162 46.416161z" p-id="2462"></path></svg>