<?xml version="1.0" standalone="no"?><!DOCTYPE svg PUBLIC "-//W3C//DTD SVG 1.1//EN" "http://www.w3.org/Graphics/SVG/1.1/DTD/svg11.dtd"><svg t="1733552779030" class="icon" viewBox="0 0 1024 1024" version="1.1" xmlns="http://www.w3.org/2000/svg" p-id="1468" xmlns:xlink="http://www.w3.org/1999/xlink" width="200" height="200"><path d="M533.8 153.7V477c46.6-0.9 97.3-4.3 146.7-8.5L533.8 153.7z m-41 323.3V153.7L346.6 468.5c48.9 4.7 99.6 8 146.2 8.5z m442.3-65.3c-0.9-0.9-94.1-86.2-190.4-169.9-121.5-106-176-147.7-203-164.3l180.7 387.2c31.2-3.3 61-6.6 87.5-9.9-7 31.2-20 80.5-42.8 131.6 1.4-10.9 2.3-21.8 2.3-32.7 0-24.1-3.3-47.3-9.8-70.1-69.4 10.9-165.3 23.2-242.6 23.2-77.3 0-173.2-12.3-242.6-23.2-9.8 34.1-12.1 70.1-7 105.1-23.3-51.6-36.8-101.8-43.8-133.5 25.1 3.3 52.6 6.2 81 9L484.9 77c-27 16.6-81 58.2-203 164.3-95.9 83.8-189.5 169-190.5 169.9L67.2 433l35.4 5.7c3.7 0.5 36.8 5.7 85.7 12.3 6.5 33.1 21.9 95.6 52.1 160 57.7 122.1 142.9 189.8 246.3 196.9 9.8 1.4 20 1.9 30.3 1.9 10.7 0 21.4-0.9 32.1-2.4 102-8 186.2-75.7 243-196.9 30.7-64.9 45.6-127.8 52.1-161 45.2-6.2 75.9-10.9 79.2-11.4l35.9-4.7-24.2-21.7zM565.9 834.9L517 886.5l-49.4-51.6c-50.8-9-98.2-32.7-136.4-67.2l-61.5 111.2 9.3 9c2.8 2.8 73.6 68.6 237.9 68.6 164.4 0 234.7-65.8 237.9-68.6l9.3-9-61.5-111.2c-38.5 34.5-85.5 58.2-136.7 67.2z" p-id="1469" fill="#2c2c2c"></path></svg>