<?xml version="1.0" standalone="no"?><!DOCTYPE svg PUBLIC "-//W3C//DTD SVG 1.1//EN" "http://www.w3.org/Graphics/SVG/1.1/DTD/svg11.dtd"><svg t="1732789358227" class="icon" viewBox="0 0 1024 1024" version="1.1" xmlns="http://www.w3.org/2000/svg" p-id="4319" xmlns:xlink="http://www.w3.org/1999/xlink" width="200" height="200"><path d="M965.03808 464.00512c9.32864-12.04224 7.13728-29.36832-4.90496-38.69696-1.66912-1.29024-3.4816-2.39616-5.40672-3.2768a485.1712 485.1712 0 0 0-203.60192-44.31872h-4.78208c-12.22656-12.55424-36.62848-37.1712-64.18432-62.6176-43.50976-40.12032-75.95008-65.10592-99.28704-76.34944-35.93216-17.34656-62.5152-13.38368-86.04672-9.8816-18.61632 2.75456-36.1984 5.38624-62.94528-1.01376-13.63968-3.26656-46.82752-16.85504-115.67104-71.168-40.76544-32.17408-73.91232-62.85312-74.22976-63.16032a27.595776 27.595776 0 0 0-28.02688-5.77536c-35.40992 12.5952-78.05952 47.72864-79.89248 143.47264-0.21504 13.04576 0.24576 26.09152 1.39264 39.09632l-13.88544-8.32512c-11.84768-7.1168-27.136-4.36224-35.75808 6.43072-4.48512 5.62176-43.54048 56.3712-32.79872 103.70048 3.47136 15.3088 13.60896 36.4544 42.0864 50.35008 45.52704 23.12192 83.27168 52.16256 112.20992 86.3232a294.012928 294.012928 0 0 1 51.93728 89.18016 316.901376 316.901376 0 0 1 18.4832 126.8224 504.33024 504.33024 0 0 0 4.1472 163.4304c2.85696 14.96064 17.29536 24.7808 32.256 21.92384 13.25056-2.52928 22.7328-14.27456 22.40512-27.76064v-0.45056c0-77.96736 63.4368-141.40416 141.40416-141.40416 32.45056-0.14336 63.92832 11.01824 89.04704 31.54944 26.624 21.5552 44.50304 52.03968 50.31936 85.79072 2.57024 15.01184 16.82432 25.09824 31.83616 22.528a27.558912 27.558912 0 0 0 19.23072-13.39392 305.092608 305.092608 0 0 0 32.9728-83.2c84.992 19.00544 159.45728 69.76512 208.19968 141.88544 8.51968 12.62592 25.67168 15.94368 38.2976 7.424a27.577344 27.577344 0 0 0 12.14464-23.21408c-1.52576-121.89696-54.38464-237.49632-145.57184-318.39232a488.67328 488.67328 0 0 0 148.62336-127.50848zM596.02944 378.5728a22.96832 22.96832 0 0 1-25.14944 10.27072L460.55424 361.2672c-12.30848-3.08224-19.79392-15.5648-16.71168-27.88352 2.56-10.21952 11.74528-17.38752 22.28224-17.39776h86.4256c6.66624 0 13.0048 2.89792 17.36704 7.936l23.90016 27.57632c6.56384 7.5776 7.46496 18.5344 2.21184 27.07456z" p-id="4320"></path></svg>